<?xml version="1.0" standalone="no"?>
<!DOCTYPE svg PUBLIC "-//W3C//DTD SVG 20010904//EN"
 "http://www.w3.org/TR/2001/REC-SVG-20010904/DTD/svg10.dtd">
<svg version="1.0" xmlns="http://www.w3.org/2000/svg"
 width="736.000000pt" height="736.000000pt" viewBox="0 0 736.000000 736.000000"
 preserveAspectRatio="xMidYMid meet">

<g transform="translate(0.000000,736.000000) scale(0.100000,-0.100000)"
fill="#000000" stroke="none">
<path d="M5609 7173 c-19 -21 -60 -67 -90 -103 -95 -114 -236 -261 -277 -290
-12 -8 -22 -18 -22 -23 0 -32 155 114 304 287 112 131 132 142 105 58 -24 -74
-70 -151 -125 -212 -64 -68 -113 -100 -199 -130 -55 -19 -181 -38 -215 -33
-28 5 -58 -7 -56 -22 3 -22 4 -22 96 -28 47 -3 74 -3 60 2 -22 6 -20 8 25 19
28 7 86 27 130 44 109 44 202 135 262 258 57 117 76 210 44 210 -4 0 -23 -17
-42 -37z"/>
<path d="M2757 7013 c-2 -5 -7 -20 -11 -35 -8 -34 7 -44 119 -87 103 -40 308
-91 365 -91 43 0 31 -13 -43 -48 -34 -16 -111 -62 -172 -102 -214 -141 -350
-261 -394 -347 -11 -23 -32 -50 -47 -62 -66 -52 -310 -161 -441 -197 -7 -2
-13 -11 -13 -20 0 -13 8 -15 53 -9 70 9 203 42 238 60 56 30 61 15 9 -27 -29
-24 -101 -89 -160 -146 -59 -57 -118 -110 -131 -119 -53 -35 -69 -56 -57 -70
13 -16 12 -17 -32 -29 -51 -14 -47 -40 7 -36 72 4 193 70 352 190 46 34 86 61
88 58 8 -8 -17 -73 -39 -101 -11 -14 -45 -39 -77 -55 -71 -36 -98 -56 -88 -66
4 -5 30 4 58 19 l50 27 -3 -23 c-2 -15 -9 -21 -21 -19 -23 4 -99 -47 -91 -60
3 -5 20 -6 37 -2 44 9 33 0 -69 -54 -49 -26 -87 -51 -84 -57 8 -15 37 -8 78
20 43 29 52 19 24 -27 -52 -88 -82 -149 -82 -172 0 -13 -16 -44 -35 -68 -19
-24 -49 -63 -67 -87 -18 -24 -54 -67 -80 -96 -27 -28 -48 -57 -48 -63 0 -25
29 -10 72 36 60 64 228 206 235 199 3 -3 -10 -34 -29 -69 -56 -102 -117 -263
-154 -408 -29 -116 -34 -152 -34 -251 0 -101 -3 -120 -20 -142 -23 -30 -26
-47 -6 -47 33 0 161 213 252 418 l58 134 78 61 c42 34 124 102 182 151 96 80
120 106 99 106 -10 0 -107 -74 -223 -170 -47 -38 -93 -70 -102 -70 -9 0 -20
-9 -23 -20 -4 -12 -24 -32 -46 -47 -41 -27 -51 -46 -21 -41 9 2 16 -2 15 -9
-1 -6 -41 -89 -88 -185 -79 -159 -115 -219 -115 -192 0 31 164 476 205 554 17
34 18 40 6 40 -13 0 -81 -142 -140 -291 -27 -66 -51 -122 -55 -126 -13 -13 -5
42 13 96 10 31 29 90 41 131 47 154 133 342 211 456 27 39 49 77 49 83 0 22
-25 10 -67 -31 -62 -61 -53 -30 12 43 76 85 168 209 161 216 -3 3 -14 -5 -25
-18 -10 -13 -46 -58 -80 -99 -34 -41 -81 -99 -104 -127 -23 -29 -44 -48 -46
-42 -2 6 6 20 17 32 12 12 31 36 44 54 136 187 174 235 201 251 18 11 100 59
182 108 155 91 235 144 219 144 -9 0 -170 -87 -224 -121 -14 -9 -72 -42 -130
-74 -58 -32 -118 -67 -133 -78 -30 -21 -48 -18 -22 3 8 7 15 20 15 29 0 29 28
58 87 92 92 52 279 149 288 149 12 0 -35 -34 -90 -65 -164 -92 -254 -148 -259
-161 -3 -8 -3 -14 -1 -14 3 0 78 43 168 96 312 186 372 221 424 249 29 15 50
32 47 36 -3 5 -1 9 5 9 6 0 15 9 21 20 9 17 0 14 -52 -15 -35 -19 -94 -50
-133 -67 -38 -18 -152 -74 -253 -126 -101 -52 -185 -92 -188 -90 -2 3 5 13 16
23 11 10 20 23 20 30 0 6 13 32 29 57 20 31 26 49 19 56 -7 7 -6 17 2 31 6 12
10 36 8 52 l-3 30 -75 -56 c-41 -30 -82 -61 -90 -68 -46 -36 -112 -79 -116
-75 -2 3 24 29 58 59 34 30 70 62 81 71 11 10 62 50 113 90 52 40 94 75 94 79
0 9 -69 -5 -112 -24 -63 -27 -43 -5 33 37 39 21 104 60 145 87 40 27 83 49 94
49 12 0 56 34 108 83 132 126 140 133 234 197 85 59 125 77 98 45 -6 -8 -10
-20 -8 -27 3 -7 11 0 19 17 18 37 63 63 152 87 102 27 207 34 397 27 175 -7
362 -41 514 -94 70 -24 96 -24 76 0 -11 14 -186 65 -310 91 -120 25 -334 41
-450 33 -58 -4 -112 -3 -120 1 -8 4 -60 11 -115 15 -175 12 -422 64 -539 114
-61 27 -60 44 2 26 209 -61 394 -95 506 -95 93 1 248 24 276 42 20 12 62 16
215 17 105 1 232 -1 284 -5 80 -6 94 -9 98 -25 6 -20 23 -26 23 -9 0 16 52 12
121 -10 74 -24 183 -85 251 -141 26 -22 51 -39 57 -39 24 0 19 22 -14 51 -42
38 -44 49 -9 49 17 0 39 -14 65 -40 25 -25 49 -40 64 -40 34 0 31 16 -5 35
-16 8 -33 21 -37 29 -10 16 -66 46 -87 46 -8 0 -19 -8 -25 -17 -9 -17 -15 -15
-73 16 -114 62 -114 69 3 46 210 -40 356 -84 407 -122 25 -19 32 -21 32 -8 0
62 -405 175 -735 206 -93 8 -269 9 -615 5 -533 -8 -638 -2 -810 49 -96 28 -97
28 -103 18z m666 -114 c-51 -4 -111 -4 -135 0 -32 7 -8 9 92 9 l135 -1 -92 -8z
m145 4 c-10 -2 -26 -2 -35 0 -10 3 -2 5 17 5 19 0 27 -2 18 -5z m-108 -122 c0
-5 -19 -11 -42 -15 -23 -4 -49 -12 -57 -19 -12 -10 -14 -9 -8 6 3 9 4 17 0 17
-24 0 -367 -217 -487 -309 -33 -25 -54 -47 -47 -49 7 -2 29 9 49 25 59 47 71
48 22 3 -25 -23 -54 -46 -65 -51 -11 -5 -31 -16 -45 -26 l-25 -17 23 23 c46
45 18 43 -38 -4 -47 -39 -66 -45 -51 -16 29 54 361 293 546 392 82 44 96 49
158 49 37 0 67 -4 67 -9z m-922 -782 c-24 -43 -86 -92 -249 -196 -88 -56 -139
-81 -139 -69 0 2 62 49 138 104 75 55 166 123 201 151 35 28 66 51 68 51 2 0
-6 -18 -19 -41z m15 -57 c-3 -12 -9 -22 -14 -22 -12 0 -11 7 3 30 15 24 19 21
11 -8z m316 24 c-2 -2 -15 -9 -29 -15 -24 -11 -24 -11 -6 3 16 13 49 24 35 12z
m-729 -256 c0 -5 -12 -10 -26 -10 -14 0 -23 4 -19 10 3 6 15 10 26 10 10 0 19
-4 19 -10z m284 -92 c-16 -28 -177 -239 -187 -245 -33 -20 93 197 135 232 31
26 65 34 52 13z"/>
<path d="M3782 6860 c-34 -8 -60 -26 -51 -35 3 -2 21 0 40 5 50 15 291 12 389
-4 101 -17 223 -57 302 -98 54 -29 88 -32 88 -8 0 26 -231 111 -364 135 -94
16 -344 19 -404 5z"/>
<path d="M5244 6672 c3 -6 30 -15 59 -22 63 -13 171 -52 229 -81 110 -55 422
-299 384 -299 -5 0 -60 40 -125 88 -129 98 -221 159 -325 216 -103 57 -71 26
72 -70 194 -130 320 -224 299 -224 -4 0 -60 33 -124 74 -165 103 -202 121
-209 102 -3 -9 -4 -20 -2 -25 1 -6 68 -77 148 -158 201 -204 263 -290 374
-511 48 -96 131 -308 151 -387 l13 -50 -52 56 c-67 72 -235 307 -333 466 -42
68 -83 129 -91 136 -13 10 -14 9 -5 -8 70 -130 237 -386 363 -554 80 -107 121
-183 107 -197 -2 -2 -20 19 -40 48 -20 29 -64 89 -98 133 -34 44 -110 154
-170 245 -60 90 -109 158 -109 150 0 -31 173 -302 333 -521 69 -95 92 -140 70
-138 -5 0 -30 32 -58 70 -27 38 -79 109 -115 157 -36 49 -92 128 -125 177 -32
48 -61 83 -63 77 -4 -13 153 -255 277 -427 48 -66 90 -125 93 -130 6 -9 55
-201 72 -277 4 -16 3 -28 -1 -28 -5 0 -24 47 -43 105 -19 58 -38 105 -42 105
-11 0 -10 -54 1 -82 5 -13 24 -70 41 -128 42 -139 61 -190 72 -190 16 0 28 50
22 94 -6 37 -3 46 21 70 23 23 26 33 21 64 -4 20 -12 82 -20 137 -45 341 -272
950 -421 1130 -68 83 -149 168 -232 248 -34 31 -56 57 -48 57 12 0 230 -144
311 -206 163 -126 254 -178 254 -145 0 5 -25 32 -55 59 -33 29 -53 55 -50 63
3 8 -23 43 -63 84 -216 225 -495 409 -661 436 -31 5 -69 11 -85 15 -18 4 -26
2 -22 -4z m987 -1478 c12 -51 15 -82 9 -88 -7 -7 -10 -1 -10 15 0 13 -9 53
-20 87 -23 74 -25 91 -9 75 6 -6 20 -46 30 -89z m38 -281 c17 -49 26 -146 11
-121 -6 9 -15 38 -20 65 -5 26 -12 58 -16 71 -11 37 10 25 25 -15z"/>
<path d="M4670 5949 c0 -3 11 -77 25 -165 14 -87 30 -199 36 -249 6 -49 13
-92 16 -95 7 -7 -6 154 -17 210 -5 25 -16 99 -26 165 -9 66 -21 124 -26 130
-4 5 -8 7 -8 4z"/>
<path d="M3956 5818 c-79 -234 -244 -506 -445 -733 -72 -82 -86 -103 -52 -86
44 24 204 215 292 349 29 45 61 82 69 82 9 0 40 -9 70 -19 l55 -20 -2 -53 c-4
-107 -25 -403 -29 -417 -4 -11 -7 -12 -16 -3 -17 17 -140 15 -213 -3 -33 -8
-72 -14 -87 -15 -16 0 -28 -5 -28 -11 0 -7 46 -9 138 -8 142 2 178 -6 211 -45
8 -9 22 -16 31 -16 24 0 84 -71 113 -132 23 -49 34 -58 43 -34 10 25 -37 100
-97 157 l-59 56 10 94 c5 52 17 263 25 470 8 207 18 398 21 423 5 37 4 46 -8
46 -10 0 -24 -29 -42 -82z m7 -246 c-3 -83 -10 -152 -15 -152 -4 0 -8 7 -8 15
0 8 -11 17 -25 20 -14 3 -36 7 -50 10 -14 3 -25 10 -25 15 0 13 121 253 125
248 2 -2 1 -72 -2 -156z"/>
<path d="M5039 5880 c0 -3 -2 -133 -3 -290 -4 -299 -11 -365 -60 -566 -34
-140 -47 -167 -40 -84 3 36 9 94 14 130 14 92 31 473 24 510 -12 59 -24 40
-24 -38 0 -119 -20 -431 -30 -472 -6 -23 -8 39 -7 180 1 135 -2 217 -8 220 -6
3 -13 -45 -17 -129 -8 -147 -16 -191 -17 -93 -1 63 -15 107 -30 97 -5 -3 -12
-62 -16 -132 -9 -153 -20 -183 -29 -82 -4 41 -11 99 -16 129 -5 30 -11 81 -15
113 -4 32 -9 56 -12 54 -4 -5 19 -234 37 -362 5 -33 9 -99 9 -147 1 -71 4 -88
16 -88 8 0 15 9 15 20 0 11 5 20 10 20 6 0 10 -38 10 -94 0 -101 5 -126 25
-126 15 0 25 22 25 56 0 13 12 49 26 81 15 32 35 81 44 108 l17 50 99 -1 c54
0 132 -6 172 -13 84 -15 98 -29 108 -107 4 -27 12 -56 19 -64 7 -8 16 -32 19
-53 4 -21 16 -65 27 -99 12 -40 19 -90 20 -147 0 -124 28 -336 41 -316 16 26
49 338 54 525 6 189 -5 404 -21 430 -15 24 -22 -3 -13 -47 13 -66 12 -481 -1
-633 -19 -206 -26 -201 -38 26 -8 133 -9 212 -3 218 13 13 13 74 0 151 -5 33
-16 133 -24 223 -10 117 -18 168 -29 180 -9 10 -26 79 -42 167 -14 83 -28 155
-30 160 -9 20 3 -112 18 -210 61 -376 64 -400 72 -525 4 -74 3 -100 -5 -89
-12 21 -36 133 -45 219 -3 35 -9 69 -12 74 -4 5 -5 35 -4 65 2 47 -38 389 -53
463 -29 137 -59 258 -63 254 -5 -4 18 -128 37 -206 5 -19 20 -127 34 -240 31
-257 34 -282 25 -272 -6 7 -82 320 -98 407 -5 28 -18 100 -30 160 -11 61 -23
127 -26 149 -4 21 -8 36 -11 34 -7 -7 16 -209 27 -246 6 -18 8 -36 5 -39 -7
-7 -11 4 -31 102 -9 44 -20 94 -25 110 -4 17 -12 53 -16 80 -4 28 -9 42 -11
33 -5 -22 32 -228 63 -347 13 -51 24 -100 24 -108 0 -38 -21 11 -75 178 -33
100 -61 174 -63 166 -2 -9 6 -45 17 -79 16 -53 161 -493 209 -636 8 -23 12
-45 9 -49 -4 -3 -28 0 -54 7 -26 6 -88 14 -138 17 -49 2 -95 6 -101 8 -9 3 -8
23 2 77 29 149 45 374 41 569 -3 125 -8 194 -16 202 -6 6 -11 9 -12 7z m188
-392 c-3 -8 -6 -5 -6 6 -1 11 2 17 5 13 3 -3 4 -12 1 -19z m-320 -530 c-3 -7
-5 -2 -5 12 0 14 2 19 5 13 2 -7 2 -19 0 -25z m323 23 c70 -12 113 -28 105
-41 -4 -6 -15 -6 -31 0 -27 11 -194 38 -264 43 -25 2 -4 4 45 5 50 1 115 -2
145 -7z m-383 -93 c-3 -7 -5 -2 -5 12 0 14 2 19 5 13 2 -7 2 -19 0 -25z"/>
<path d="M4252 5689 c-6 -13 -15 -63 -21 -110 -23 -181 -135 -591 -173 -633
-4 -6 -8 -19 -8 -30 1 -62 80 107 118 251 11 42 23 69 32 71 8 1 37 -18 64
-43 28 -24 51 -43 53 -42 1 2 0 20 -4 40 -4 25 -19 49 -50 79 -40 39 -44 47
-40 83 7 64 41 245 47 245 5 0 17 -60 56 -275 27 -142 94 -447 123 -555 16
-58 34 -126 41 -152 7 -27 17 -48 22 -48 9 0 6 54 -12 180 -5 36 -15 110 -20
165 -36 325 -67 552 -80 575 -14 24 -12 -44 4 -141 8 -46 17 -118 21 -159 3
-41 10 -100 15 -130 5 -30 11 -86 14 -125 5 -55 4 -65 -5 -45 -12 28 -79 326
-99 435 -31 179 -72 371 -80 379 -5 5 -13 -1 -18 -15z m38 -472 c0 -10 -17 1
-57 37 -40 34 -25 38 17 5 22 -18 40 -37 40 -42z"/>
<path d="M4086 5633 c-24 -84 -80 -414 -91 -543 -3 -36 -11 -98 -17 -138 -8
-55 -8 -76 0 -84 9 -9 12 -7 12 9 0 33 10 52 24 47 19 -7 35 41 86 261 17 72
38 159 46 195 9 36 18 101 20 145 l3 80 -23 -110 c-40 -187 -56 -256 -81 -355
-13 -52 -26 -114 -30 -137 -4 -24 -12 -46 -17 -50 -26 -15 13 288 78 614 17
85 16 83 5 83 -5 0 -12 -8 -15 -17z"/>
<path d="M4671 5620 c0 -19 5 -78 13 -130 8 -52 19 -138 26 -190 6 -52 18
-136 26 -187 9 -51 14 -107 12 -125 -3 -36 -9 -14 -64 232 -45 203 -76 325
-85 335 -6 5 -9 5 -9 -1 0 -10 35 -180 65 -314 38 -172 44 -204 40 -208 -5 -6
-2 -17 -70 196 -31 94 -60 172 -65 172 -19 0 -18 -20 5 -136 13 -66 29 -173
34 -239 18 -203 12 -423 -11 -409 -5 4 -8 -8 -6 -27 4 -40 22 -48 40 -17 10
17 13 84 13 270 0 135 3 244 8 241 4 -2 7 -10 7 -17 0 -6 18 -67 40 -134 22
-67 54 -181 71 -253 26 -109 29 -133 18 -140 -36 -20 -51 -37 -45 -47 5 -8 18
-4 44 13 45 31 151 65 201 65 20 0 47 -6 61 -13 20 -10 27 -11 35 0 8 9 28 2
88 -32 85 -48 97 -52 97 -32 0 13 -150 99 -220 125 -57 22 -103 31 -127 25
-32 -7 -18 -23 20 -23 18 0 27 -4 21 -9 -11 -10 -123 -45 -128 -40 -14 17 -35
145 -30 182 4 28 2 47 -5 51 -6 4 -11 21 -11 37 0 17 -3 28 -7 26 -5 -3 -9 39
-10 94 0 54 -6 131 -12 171 -7 40 -16 100 -21 133 -5 33 -17 114 -25 180 -9
66 -20 140 -25 165 -7 43 -8 43 -9 10z"/>
<path d="M3615 5388 c-27 -50 -64 -116 -82 -145 -17 -29 -53 -93 -78 -141 -26
-48 -52 -94 -59 -102 -23 -28 -78 -140 -74 -151 4 -13 39 44 177 286 169 296
194 345 174 345 -4 0 -30 -42 -58 -92z"/>
<path d="M3542 5448 c-25 -32 -212 -428 -212 -450 0 -8 -15 -46 -70 -173 -22
-52 -29 -86 -17 -82 6 2 44 82 83 178 80 195 99 239 174 389 28 58 56 115 61
128 9 24 -2 30 -19 10z"/>
<path d="M4464 5435 c35 -139 53 -321 63 -622 5 -180 9 -213 21 -213 13 0 14
26 9 203 -11 337 -54 657 -88 657 -7 0 -9 -10 -5 -25z"/>
<path d="M3342 5354 c-6 -16 -20 -67 -31 -114 -19 -78 -55 -214 -101 -380 -10
-36 -19 -58 -19 -50 -1 17 61 312 79 377 13 46 7 84 -11 66 -6 -6 -39 -80 -73
-164 -34 -85 -70 -167 -78 -184 -9 -16 -28 -61 -43 -100 -15 -38 -34 -77 -43
-85 -18 -18 -20 -28 47 171 52 154 62 196 47 201 -7 3 -137 -374 -165 -477
-11 -43 -36 -84 -45 -74 -3 3 4 66 15 140 29 187 33 236 21 224 -13 -13 -42
-146 -43 -199 l-1 -41 -10 33 c-6 17 -17 32 -25 32 -8 0 -28 -30 -45 -67 -33
-73 -118 -370 -139 -483 -7 -39 -15 -70 -19 -70 -8 0 -4 117 5 190 17 131 63
306 110 413 26 62 11 68 -19 8 -54 -106 -111 -317 -121 -446 -3 -44 -9 -91
-12 -105 -5 -25 -5 -25 -14 -3 -27 72 -19 207 23 371 18 69 19 85 8 92 -11 7
-11 15 2 49 32 80 2 39 -59 -82 -83 -162 -174 -314 -201 -333 -12 -8 -49 -49
-84 -92 -35 -42 -82 -97 -105 -122 -67 -71 -50 -78 26 -11 38 34 73 61 78 61
5 0 7 -29 5 -65 -4 -56 -2 -65 13 -65 14 0 16 8 13 48 -4 56 15 69 23 15 3
-21 22 -70 42 -109 20 -39 37 -74 37 -78 0 -4 -18 -33 -39 -64 -43 -63 -63
-132 -37 -132 8 0 18 5 21 10 3 6 10 10 16 10 16 0 10 -21 -16 -52 -25 -30
-33 -58 -16 -58 9 0 44 53 96 143 32 55 17 64 -35 21 -17 -15 -34 -23 -38 -20
-6 7 26 73 53 110 14 19 15 19 35 1 11 -10 20 -23 20 -30 0 -7 9 -20 21 -31
46 -41 44 -46 -58 -148 -76 -76 -94 -99 -85 -108 10 -10 24 0 67 47 30 33 69
79 87 102 18 23 38 42 43 42 18 0 64 -44 57 -55 -10 -15 -184 -146 -221 -166
-17 -9 -31 -22 -31 -28 0 -23 30 -20 76 9 45 29 104 42 104 22 0 -5 -9 -29
-21 -55 -36 -83 -9 -147 43 -99 20 18 20 18 17 -32 -4 -44 -2 -50 15 -50 22 0
51 46 97 155 17 41 38 82 46 90 14 13 14 11 8 -20 -6 -31 -11 -71 -14 -122 0
-10 -9 -18 -18 -18 -17 0 -34 -22 -82 -101 -26 -44 -26 -49 -3 -48 9 0 31 21
47 47 48 75 61 64 55 -43 -2 -49 -4 -110 -5 -134 l0 -44 -61 -17 c-80 -22
-115 -48 -179 -134 -61 -83 -162 -250 -189 -316 -32 -74 -151 -263 -186 -295
-17 -16 -24 -16 -44 -6 -27 15 -36 13 -453 -87 -91 -21 -103 -18 -103 33 0 37
10 53 41 69 21 11 24 18 21 67 -1 30 -9 77 -17 105 -17 60 -94 181 -154 242
-24 24 -40 46 -38 49 7 6 84 -33 126 -64 50 -39 113 -53 227 -53 93 0 105 2
124 22 13 14 20 35 20 59 0 32 -7 43 -47 77 -40 35 -45 43 -34 56 12 14 8 25
-25 73 -42 60 -52 68 -98 78 l-30 6 29 23 28 23 -41 55 c-46 63 -83 78 -164
68 -30 -4 -56 -1 -70 7 -13 7 -49 12 -81 13 -138 0 -404 -45 -437 -75 -9 -8
-52 -23 -95 -34 -119 -29 -197 -51 -228 -63 -23 -9 -27 -15 -23 -35 5 -17 2
-23 -10 -23 -21 0 -125 -58 -141 -78 -17 -20 -16 -53 0 -76 12 -16 19 -15 117
18 58 19 123 42 145 50 56 21 70 20 102 -10 26 -24 27 -25 5 -21 -61 14 -364
-91 -422 -147 -24 -22 -30 -38 -36 -93 -3 -36 -3 -87 2 -112 8 -43 11 -46 44
-49 29 -2 51 7 118 53 89 59 110 67 90 35 -7 -11 -18 -20 -25 -20 -7 0 -24
-16 -39 -35 -14 -19 -32 -35 -39 -35 -7 0 -22 -15 -33 -32 l-21 -32 32 -28
c29 -25 37 -28 84 -22 l52 5 -5 -53 c-6 -65 11 -102 48 -106 40 -5 56 28 62
127 4 84 6 87 49 112 25 14 34 3 15 -18 -35 -40 -48 -140 -24 -196 28 -68 69
-86 87 -39 15 40 90 153 98 147 4 -2 8 -26 9 -52 1 -26 7 -60 13 -75 15 -36
51 -37 73 -3 23 35 34 31 55 -18 21 -49 18 -67 -15 -67 -12 0 -49 -7 -81 -16
-45 -13 -99 -16 -245 -15 -247 3 -449 -19 -613 -64 -27 -8 -62 -17 -78 -20
-15 -3 -27 -10 -27 -15 0 -14 43 -12 109 4 67 17 204 31 155 16 -16 -5 -41
-21 -54 -35 -21 -23 -31 -25 -104 -25 -45 0 -88 -5 -96 -10 -10 -7 21 -10 96
-10 106 0 112 1 127 23 23 35 137 64 289 72 70 4 125 11 122 16 -3 5 -2 9 3 9
4 0 71 2 148 3 140 3 276 25 283 47 5 15 19 12 26 -7 9 -21 56 -365 56 -404 0
-49 -59 -146 -138 -224 -78 -78 -167 -142 -291 -208 -42 -22 -83 -46 -91 -52
-8 -7 -100 -57 -205 -110 -104 -54 -206 -108 -225 -119 -19 -12 -74 -41 -122
-66 -71 -36 -88 -49 -88 -67 0 -28 2 -28 48 0 20 13 109 60 197 104 88 45 185
96 216 115 30 18 85 47 122 63 37 17 69 37 72 45 3 9 44 35 93 58 95 45 53 38
547 97 281 34 262 35 270 -22 10 -80 26 -136 47 -170 18 -31 23 -33 75 -33 48
0 54 -2 43 -15 -7 -8 -28 -17 -49 -21 -20 -3 -162 -53 -316 -111 -172 -64
-288 -103 -303 -100 -27 5 -149 -44 -267 -107 -44 -24 -109 -59 -145 -79 -36
-19 -96 -53 -135 -76 -38 -23 -87 -46 -107 -52 -29 -7 -44 -20 -63 -53 -14
-23 -25 -46 -25 -49 0 -15 25 -5 74 27 96 63 197 107 374 161 97 29 230 69
294 89 64 20 128 36 142 36 17 0 41 -15 70 -42 40 -39 44 -49 51 -105 4 -34 4
-72 0 -85 -9 -30 -54 -98 -80 -121 -27 -23 -179 -125 -347 -232 -76 -48 -138
-89 -138 -91 0 -2 17 -4 38 -4 32 0 54 11 125 65 47 36 124 89 170 119 81 53
86 55 190 67 96 11 108 11 125 -4 10 -9 23 -17 29 -17 20 0 92 -84 99 -115 4
-16 12 -33 18 -37 8 -5 7 -16 -1 -39 -14 -36 -11 -44 11 -36 8 3 20 24 26 46
20 77 -41 199 -117 233 -41 18 -52 19 -127 8 -44 -6 -89 -13 -98 -16 -30 -9
-11 19 41 60 42 34 51 47 65 100 30 108 -7 207 -93 253 -52 27 -121 30 -175 8
-20 -9 -60 -25 -89 -36 l-52 -21 25 27 c31 34 87 63 154 80 28 7 91 30 140 49
96 39 126 44 126 22 0 -19 95 -202 126 -244 29 -37 62 -42 89 -12 17 19 16 24
-54 160 -59 114 -70 144 -61 156 7 7 20 14 29 14 9 0 21 4 27 9 5 5 47 23 92
41 111 44 142 66 159 115 26 74 -13 177 -79 211 -60 31 -133 47 -200 45 l-68
-2 0 73 c0 40 -7 116 -15 168 -16 110 -29 126 -105 136 -26 3 -52 9 -57 13
-14 10 -45 253 -38 294 8 42 10 42 121 52 l72 6 10 -30 c6 -16 19 -34 31 -40
16 -9 23 -7 40 15 12 15 21 40 21 56 0 22 6 31 28 39 50 19 174 41 195 34 12
-3 83 -10 157 -15 74 -5 143 -11 152 -15 45 -18 64 -185 84 -740 4 -99 11
-191 16 -205 14 -38 149 -250 159 -250 19 0 7 28 -42 100 -98 146 -100 154
-110 340 -5 91 -14 248 -19 349 -9 175 -8 218 5 175 42 -135 393 -856 427
-878 10 -6 23 -1 41 16 32 30 89 48 148 48 34 0 61 10 113 40 37 22 74 40 81
40 7 0 15 4 17 9 3 10 198 121 212 121 5 0 25 -15 46 -32 21 -18 56 -45 78
-60 34 -24 42 -36 51 -80 19 -85 32 -138 57 -227 13 -46 24 -103 24 -126 0
-58 26 -158 58 -220 23 -47 24 -54 13 -106 -6 -30 -11 -74 -11 -97 0 -23 -4
-42 -9 -42 -8 0 -214 215 -259 270 -11 14 -23 22 -26 19 -9 -9 34 -62 165
-201 l124 -131 6 -111 c4 -61 7 -112 8 -113 3 -8 781 -2 781 6 0 19 -33 139
-67 246 l-35 110 2 294 2 293 41 59 c23 32 45 59 49 59 4 0 46 -53 94 -118 48
-64 104 -139 125 -167 20 -27 81 -97 136 -154 l98 -104 36 12 c45 15 57 28
104 114 34 61 36 71 25 93 -12 21 -11 26 13 48 15 14 27 33 27 42 0 10 -9 112
-20 228 -11 116 -24 261 -30 321 -6 61 -13 173 -16 250 -3 77 -8 144 -11 148
-3 5 -9 40 -14 78 -10 84 -62 254 -116 378 -32 76 -115 161 -157 161 -24 0
-19 -15 8 -28 52 -24 143 -190 182 -334 38 -140 45 -192 59 -408 21 -320 33
-481 45 -590 22 -198 19 -212 -85 -435 l-28 -59 -68 74 c-37 41 -80 96 -95
124 -46 84 -253 346 -359 452 -147 149 -208 182 -282 153 -55 -22 -153 -6
-153 25 0 8 -13 45 -28 83 -44 108 -104 179 -197 233 -27 16 -72 52 -100 80
-27 27 -54 50 -61 50 -6 0 -98 84 -203 187 l-191 188 0 45 c0 89 -21 214 -41
247 -22 36 -18 53 12 53 10 0 19 5 19 11 0 8 -11 9 -32 5 -44 -9 -55 -22 -40
-46 6 -11 12 -27 12 -35 0 -9 6 -26 14 -38 19 -29 33 -207 17 -207 -6 0 -48
35 -92 77 -67 65 -88 92 -125 168 -49 101 -50 106 -29 138 28 43 37 169 39
519 0 192 3 348 6 348 3 -1 29 -51 59 -113 64 -132 154 -284 186 -312 12 -11
60 -69 106 -130 151 -199 256 -320 387 -446 119 -115 139 -130 253 -189 l124
-64 140 -4 c129 -3 146 -1 214 22 41 14 84 26 95 26 12 0 44 12 71 25 28 14
53 25 58 25 4 0 -5 -24 -19 -52 -50 -98 -125 -282 -180 -438 -82 -232 -81
-230 -120 -230 -53 0 -124 -29 -189 -76 -66 -47 -115 -90 -115 -99 0 -17 44 1
96 39 104 77 128 86 228 86 l88 0 80 78 c107 103 218 229 218 247 0 19 -42 43
-48 26 -14 -42 -247 -291 -273 -291 -17 0 -9 29 10 35 13 4 23 22 32 58 16 69
72 225 164 458 41 105 75 203 75 219 0 20 12 38 42 66 24 21 60 60 81 87 22
27 53 55 71 62 18 8 48 31 67 53 19 22 56 65 83 96 38 44 54 56 77 56 24 0 33
8 51 43 17 33 23 38 25 22 7 -36 26 -65 44 -65 16 0 16 4 4 57 -10 41 -10 63
-2 80 15 33 27 28 27 -11 0 -59 12 -126 22 -120 6 4 9 41 8 83 -2 42 -2 88 -1
103 1 30 78 119 156 181 27 21 68 64 92 94 46 59 48 58 43 -24 -1 -18 2 -33 7
-33 22 1 62 75 73 136 7 36 16 62 21 57 5 -5 21 -33 36 -63 33 -65 59 -80 48
-29 -9 45 -65 201 -76 214 -12 12 -11 52 1 60 6 3 13 -2 16 -12 3 -10 14 -36
24 -58 9 -22 28 -71 40 -110 34 -100 44 -125 52 -125 20 0 13 29 -32 144 -48
121 -75 212 -51 175 5 -8 18 -38 27 -65 9 -27 21 -55 26 -61 24 -30 24 -8 2
62 -47 148 -68 344 -50 453 10 53 -6 55 -24 3 -12 -38 -10 -208 5 -326 5 -39
4 -38 -16 15 -29 77 -42 155 -36 220 4 52 42 184 72 256 8 18 17 49 21 69 10
54 -12 37 -30 -23 -19 -61 -20 -32 -2 55 19 90 46 296 46 352 0 24 2 42 4 40
8 -8 73 -462 96 -673 9 -88 9 -101 -6 -118 -19 -20 -20 -47 -13 -236 4 -114
-5 -151 -16 -64 -3 26 -11 81 -17 122 -6 41 -10 114 -10 163 0 81 -8 108 -22
71 -9 -22 -7 -137 4 -219 21 -170 33 -241 41 -249 5 -6 9 -21 9 -35 0 -15 5
-33 10 -41 20 -32 32 7 33 109 1 101 9 124 27 75 18 -46 120 -129 120 -97 0 4
-11 18 -24 32 -34 35 -97 158 -90 175 15 39 34 23 74 -61 22 -47 55 -105 74
-127 18 -23 38 -52 45 -64 10 -19 18 -22 39 -17 49 11 53 28 49 180 -4 135
-16 239 -33 279 -5 14 -3 18 7 14 18 -5 103 -174 130 -259 26 -82 33 -93 53
-86 15 6 15 10 -2 44 -26 52 -49 132 -66 228 -8 44 -22 107 -31 140 -9 33 -18
92 -21 130 l-4 70 28 -113 c16 -62 33 -116 36 -120 15 -14 35 30 28 62 -4 17
-5 56 -4 86 7 122 5 269 -5 345 -11 82 -62 290 -88 358 -18 44 -18 50 -5 42
12 -7 131 -233 161 -305 28 -70 34 -76 54 -60 13 11 14 16 2 34 -18 26 -56
118 -112 266 -40 107 -77 198 -152 375 -17 39 -33 79 -37 89 -4 10 -9 16 -12
13 -3 -3 8 -43 25 -88 17 -46 48 -133 70 -194 22 -60 39 -111 37 -112 -2 -2
-26 35 -55 82 -66 109 -106 114 -67 8 41 -110 94 -317 121 -468 16 -94 32
-294 22 -285 -5 5 -41 190 -68 355 -13 78 -38 163 -50 170 -13 9 -11 -30 5
-100 8 -33 16 -82 20 -110 5 -47 5 -48 -7 -18 -6 17 -16 35 -20 39 -14 14 1
-162 17 -201 9 -21 15 -40 13 -42 -12 -12 -45 59 -122 267 -49 129 -94 244
-101 255 -7 12 -15 75 -19 150 -4 72 -11 150 -16 175 -5 29 -6 2 -3 -75 3 -66
9 -202 13 -302 4 -100 11 -186 15 -190 5 -4 5 44 2 107 -8 131 -3 130 43 -10
34 -101 99 -274 162 -430 32 -79 96 -337 85 -347 -1 -1 -22 48 -45 110 -24 61
-54 130 -66 152 -12 22 -48 119 -80 215 -31 96 -61 182 -66 190 -19 33 -8 -28
27 -145 81 -277 96 -334 104 -405 5 -41 16 -124 24 -185 17 -120 21 -260 6
-195 -4 19 -10 60 -14 90 -17 172 -43 317 -58 326 -11 7 -10 -7 6 -106 8 -47
19 -123 25 -170 32 -259 20 -237 -39 68 -21 111 -40 161 -39 107 0 -16 4 -50
8 -75 34 -186 52 -303 48 -307 -11 -10 -93 158 -113 232 -11 44 -25 78 -30 75
-5 -3 -9 -28 -9 -57 0 -51 -16 -86 -29 -64 -15 23 -19 111 -6 126 13 16 12 46
-21 425 -5 63 -14 178 -20 255 -5 77 -16 203 -24 280 l-14 140 4 -165 c3 -91
7 -201 10 -245 4 -72 3 -75 -5 -30 -19 93 -41 270 -50 380 -8 110 -16 145 -30
145 -4 0 -8 -84 -8 -187 -1 -253 -42 -602 -79 -681 -13 -27 -14 -35 -3 -42 9
-6 0 -37 -38 -131 -27 -68 -96 -263 -152 -434 -57 -170 -110 -323 -118 -340
-19 -38 -179 -221 -337 -385 -66 -69 -142 -152 -169 -185 -77 -92 -128 -145
-138 -139 -4 3 -5 10 -2 16 3 5 8 110 9 231 2 182 5 227 19 252 21 39 20 47
-4 78 -19 24 -20 29 -6 60 18 45 36 55 43 27 4 -17 11 -20 27 -15 11 4 33 6
48 6 17 -1 28 5 31 16 4 17 5 17 6 1 2 -26 20 -22 19 5 0 42 -29 167 -40 173
-8 5 -9 1 -4 -11 4 -11 10 -39 13 -64 9 -67 -12 -43 -27 31 -12 61 -24 87 -35
77 -2 -3 0 -22 6 -42 5 -21 8 -41 5 -45 -3 -5 -37 -5 -77 -1 -81 9 -97 5 -75
-20 20 -22 10 -34 -14 -19 -13 9 -23 7 -41 -5 -31 -22 -46 -21 -54 3 -8 24
-22 25 -47 4 -14 -13 -21 -14 -32 -5 -9 8 -28 10 -49 6 -28 -5 -37 -3 -45 11
-9 16 -15 16 -46 7 -33 -10 -36 -9 -59 20 -23 30 -26 31 -53 19 -25 -12 -29
-11 -45 10 -17 22 -18 22 -56 4 l-38 -18 -26 31 c-28 34 -50 39 -69 16 -16
-20 -36 -19 -44 1 -13 34 -7 36 87 33 56 -3 93 0 95 6 5 16 -56 26 -178 27
-97 1 -122 -2 -161 -19 -41 -18 -47 -25 -52 -59 -19 -115 5 -225 77 -359 50
-90 81 -122 157 -161 54 -27 53 -25 124 -179 62 -135 119 -228 158 -261 17
-14 56 -39 89 -55 32 -16 56 -34 53 -38 -20 -33 -288 -37 -373 -7 -58 21 -161
84 -227 139 -241 202 -646 713 -794 1003 -58 112 -71 185 -71 392 0 171 -7
212 -34 212 -23 0 -26 -25 -26 -211 l0 -180 -51 -107 c-73 -156 -85 -177 -103
-180 -14 -3 -14 3 4 52 12 30 46 98 76 151 31 53 54 98 52 100 -1 1 -16 9 -33
18 -66 34 -185 171 -237 272 -52 101 -66 230 -31 281 33 47 74 115 133 217 53
92 80 123 66 75 -53 -188 -46 -371 15 -380 15 -2 27 -17 41 -56 18 -49 42 -66
31 -22 -3 11 -1 26 5 33 5 6 15 39 21 72 32 161 65 293 82 323 11 19 17 37 15
41 -2 3 4 18 15 31 l20 25 -4 -45 c-2 -25 -10 -91 -17 -148 -14 -102 -8 -135
19 -118 20 13 62 95 92 178 16 45 48 116 72 158 23 41 68 129 98 195 31 66 64
136 73 155 l17 35 -5 -35 c-2 -19 -16 -97 -30 -173 -29 -153 -34 -241 -14
-235 7 3 22 43 34 89 63 246 104 401 122 464 49 170 79 348 44 259z m-462
-804 c0 -5 -4 -10 -10 -10 -5 0 -10 5 -10 10 0 6 5 10 10 10 6 0 10 -4 10 -10z
m3200 -400 c0 -13 -1 -13 -10 0 -5 8 -10 22 -10 30 0 13 1 13 10 0 5 -8 10
-22 10 -30z m-543 -112 c-3 -8 -6 -5 -6 6 -1 11 2 17 5 13 3 -3 4 -12 1 -19z
m-137 -418 c-91 -273 -120 -346 -127 -323 -5 14 171 551 195 598 12 22 17 26
20 14 1 -9 -38 -139 -88 -289z m106 93 c14 -59 14 -67 -5 -125 -44 -141 -125
-282 -211 -368 -28 -28 -53 -50 -55 -50 -7 0 9 30 46 84 18 27 63 146 116 303
48 142 89 249 91 238 1 -11 10 -48 18 -82z m-2756 -153 c0 -11 -13 -42 -30
-68 -16 -27 -30 -53 -30 -58 0 -5 -10 -20 -21 -34 l-20 -25 7 25 c21 76 67
180 80 180 8 0 14 -9 14 -20z m-130 1 c0 -18 -42 -61 -61 -61 -26 0 -24 9 8
42 26 27 53 37 53 19z m2896 -78 c-11 -11 -19 6 -11 24 8 17 8 17 12 0 3 -10
2 -21 -1 -24z m-30 -65 c-4 -24 -13 -61 -21 -83 l-14 -40 -1 42 c0 39 25 123
37 123 3 0 2 -19 -1 -42z m-1503 -271 c63 -23 118 -53 186 -102 26 -19 46 -25
85 -24 38 0 46 3 31 9 -16 7 -13 9 17 9 23 1 40 7 46 18 9 15 12 14 43 -5 19
-11 57 -44 84 -72 l50 -51 0 -242 c0 -240 0 -242 -25 -287 -52 -93 -167 -117
-286 -61 -33 16 -76 45 -96 65 -36 37 -129 207 -168 306 -12 30 -27 62 -34 70
-7 8 -27 50 -45 92 -30 73 -70 147 -81 148 -3 0 -11 -9 -18 -20 -10 -16 -9
-27 4 -60 17 -42 40 -56 29 -17 l-7 22 17 -22 c19 -27 48 -94 42 -99 -2 -2
-21 9 -43 24 -43 31 -112 159 -100 184 32 63 67 96 125 119 60 24 68 23 144
-4z m-2673 -47 c-19 -11 -43 -19 -52 -20 -10 0 -18 -4 -18 -10 0 -5 -5 -10
-11 -10 -11 0 -69 -54 -69 -64 0 -12 17 -5 39 15 12 11 28 18 36 15 7 -2 15
-2 17 2 8 19 79 64 92 59 8 -3 16 -2 18 3 5 14 201 16 206 2 2 -7 10 -12 18
-12 8 0 23 -13 32 -30 9 -16 20 -30 25 -30 4 0 7 -4 7 -10 0 -5 -9 -10 -21
-10 -11 0 -28 -4 -38 -10 -10 -5 -45 -11 -78 -13 -33 -2 -65 -7 -71 -11 -6 -3
-14 -1 -17 5 -5 7 -15 3 -31 -11 -15 -15 -30 -21 -46 -17 -13 3 -32 -1 -42 -9
-11 -8 -28 -14 -38 -14 -10 0 -32 -10 -48 -22 -30 -22 -52 -19 -32 4 7 9 7 18
-2 31 -17 22 -26 22 -26 -3 0 -24 -15 -27 -24 -4 -3 8 -10 12 -16 9 -5 -3 -10
3 -10 14 0 23 -39 62 -97 97 l-37 22 42 11 c23 7 47 9 53 6 5 -4 15 -2 22 3 7
5 52 13 101 16 50 4 92 9 95 11 2 3 16 5 30 5 25 -1 25 -2 -9 -20z m-328 -88
c7 -7 20 -12 30 -12 13 0 20 -10 25 -31 3 -17 12 -33 19 -36 19 -7 18 -23 -1
-23 -8 0 -15 -6 -15 -14 0 -21 -19 -30 -34 -16 -11 8 -15 8 -18 -1 -3 -8 -11
-10 -24 -4 -10 4 -27 7 -37 6 -10 -1 -25 3 -33 9 -24 21 -15 -3 14 -33 l27
-30 -30 6 -30 5 25 -20 24 -19 -45 5 c-24 2 -47 5 -50 5 -4 1 -28 19 -55 41
-32 27 -51 36 -59 30 -7 -6 -25 -11 -41 -13 -16 -2 -44 -11 -62 -21 -18 -9
-37 -14 -42 -11 -6 3 -20 -1 -32 -9 -12 -9 -31 -16 -42 -16 -11 0 -27 -7 -37
-16 -10 -9 -22 -13 -27 -10 -12 7 -4 46 9 46 4 0 20 11 35 25 15 14 39 28 53
31 14 3 33 8 41 11 8 3 31 7 50 9 52 5 72 9 100 21 34 14 160 23 160 11 0 -5
4 -7 10 -3 22 13 -26 41 -65 37 -61 -5 -79 -8 -96 -16 -9 -4 -36 -6 -60 -4
-42 3 -43 4 -14 11 17 5 38 12 47 18 10 5 30 9 46 9 15 0 32 4 38 10 26 26
173 35 196 12z m1743 -179 c-4 -76 -8 -150 -8 -165 0 -34 -9 -35 -30 -5 -15
21 -16 21 -16 2 -1 -12 3 -25 7 -30 5 -6 32 -65 61 -131 l53 -121 343 -336
c216 -212 356 -341 379 -351 50 -21 131 -99 182 -176 23 -36 41 -66 39 -68 -7
-7 -44 23 -56 45 -12 22 -29 31 -29 15 0 -4 25 -37 55 -72 30 -36 55 -71 55
-77 0 -10 -24 -13 -89 -13 -97 0 -101 2 -120 63 -7 20 -17 37 -22 37 -5 0 -9
5 -9 10 0 24 111 -12 153 -48 9 -8 20 -12 25 -8 14 15 -67 75 -123 91 -55 16
-56 16 -98 -8 -23 -13 -107 -62 -187 -107 -80 -45 -197 -113 -260 -150 -157
-93 -194 -110 -234 -110 -19 0 -38 -4 -41 -10 -3 -5 -25 -14 -48 -21 -23 -6
-57 -18 -75 -26 -19 -9 -37 -12 -41 -7 -9 9 -190 361 -296 574 -34 69 -74 159
-90 200 -15 41 -35 95 -45 120 -10 25 -27 78 -39 119 l-22 74 49 51 c61 63 93
111 167 251 101 191 238 417 280 459 22 23 56 47 75 53 67 21 64 27 55 -124z
m-1131 110 c4 -4 23 -6 42 -4 24 2 36 -2 40 -13 3 -9 12 -16 20 -16 8 0 14 -5
14 -10 0 -6 11 -23 25 -38 14 -15 25 -30 25 -34 0 -10 -24 -10 -34 -1 -4 4
-27 6 -51 4 -25 -1 -45 2 -45 6 0 15 -79 55 -95 49 -8 -3 -15 -13 -15 -22 0
-14 3 -14 15 -4 13 11 19 9 38 -7 12 -11 30 -23 40 -26 9 -4 17 -11 17 -17 0
-5 9 -10 21 -10 21 0 81 -29 87 -42 2 -4 9 -5 17 -2 7 3 29 -8 48 -25 34 -30
43 -67 25 -97 -9 -14 -78 -17 -78 -2 0 7 -4 7 -12 1 -7 -6 -29 -10 -48 -10
-19 0 -41 4 -47 10 -9 6 -13 6 -13 -1 0 -15 -35 -3 -59 19 -12 11 -26 17 -32
14 -9 -6 -80 40 -87 57 -2 4 -15 8 -28 8 -14 0 -35 5 -47 12 -31 17 -117 9
-117 -11 0 -15 41 -40 55 -34 20 7 106 -80 131 -133 10 -22 31 -52 46 -69 26
-29 50 -91 62 -163 5 -27 0 -39 -30 -72 l-36 -40 7 -99 c5 -68 4 -101 -4 -105
-22 -14 -32 45 -23 134 8 76 7 88 -10 117 -11 18 -34 43 -51 55 -51 36 -104
95 -117 130 -14 40 -16 43 -63 113 -22 31 -37 59 -34 62 12 11 -35 44 -54 38
-13 -4 -19 -2 -19 9 0 9 6 16 13 16 17 0 87 68 87 86 0 8 -4 14 -9 14 -9 0
-51 -31 -86 -63 -21 -20 -71 -43 -114 -54 -24 -6 -25 -5 -12 11 13 16 12 17
-12 11 -21 -6 -27 -4 -27 9 0 19 -12 20 -65 3 -52 -16 -82 -34 -73 -43 4 -4
14 -1 22 5 10 8 16 9 21 1 3 -5 21 -10 39 -10 19 0 39 -7 46 -15 16 -19 61
-15 112 10 l37 18 39 -40 c55 -55 102 -122 102 -145 0 -10 11 -31 25 -46 27
-29 31 -42 14 -42 -6 0 -1 -13 11 -30 12 -16 24 -45 27 -64 3 -20 14 -43 24
-52 11 -9 19 -26 19 -37 0 -18 -5 -19 -52 -14 -62 7 -107 26 -109 47 -9 81
-14 103 -26 124 -10 19 -12 18 -42 -11 -17 -17 -31 -39 -31 -48 0 -9 -8 -31
-17 -47 -14 -23 -15 -32 -6 -35 7 -3 18 -23 24 -45 18 -70 29 -92 39 -82 6 6
5 40 -5 92 -10 60 -11 90 -4 112 16 44 26 29 34 -47 8 -85 15 -113 26 -113 5
0 9 9 9 20 0 11 5 20 10 20 14 0 3 -109 -17 -169 -13 -40 -13 -51 0 -105 9
-34 21 -99 27 -146 12 -87 54 -339 69 -420 10 -50 7 -62 -13 -54 -18 7 -52
151 -76 319 -55 384 -59 408 -79 429 -25 27 -61 118 -61 157 l0 30 -24 -18
c-14 -10 -30 -28 -37 -40 -13 -23 -33 -30 -43 -14 -3 4 -7 34 -8 66 -2 46 1
59 15 67 14 7 15 13 7 23 -8 10 -8 19 -1 34 6 11 11 33 11 50 0 16 5 33 11 36
6 4 8 14 5 22 -3 8 -1 23 4 33 7 13 7 21 0 25 -6 4 -2 18 11 37 17 23 20 35
12 47 -12 18 -29 16 -25 -4 1 -7 -3 -26 -9 -41 -7 -16 -11 -35 -10 -43 1 -7
-1 -20 -5 -30 -4 -9 -8 -20 -9 -26 0 -5 -6 -9 -13 -7 -8 1 -10 -6 -6 -22 3
-13 1 -27 -5 -30 -6 -4 -11 -19 -11 -34 0 -20 -19 -47 -69 -99 -37 -40 -66
-75 -64 -77 10 -9 -9 -46 -23 -46 -15 0 -15 1 -20 40 -2 14 -4 32 -5 40 -5 37
2 80 16 94 8 8 15 20 15 26 0 6 7 13 15 16 8 4 12 10 9 16 -3 5 3 12 14 15 13
3 18 11 15 19 -3 8 1 14 11 14 9 0 15 4 13 8 -4 14 63 74 77 69 9 -4 15 4 18
22 7 49 -2 54 -37 18 -55 -57 -118 -105 -148 -112 -15 -4 -27 -11 -27 -15 0
-5 -8 -11 -17 -14 -10 -3 -30 -17 -45 -31 -26 -24 -28 -32 -28 -103 0 -83 -9
-108 -34 -99 -13 5 -16 21 -16 74 0 58 -3 72 -21 87 -14 12 -24 14 -28 7 -4
-6 -21 -13 -38 -17 -25 -5 -33 -2 -42 14 -9 17 -2 28 48 78 83 85 139 127 161
121 13 -3 17 0 13 9 -3 8 0 14 5 14 6 0 28 11 48 25 28 19 40 22 50 14 10 -9
14 -9 14 0 0 6 5 11 10 11 10 0 50 36 50 45 0 3 -12 -2 -26 -11 -22 -15 -27
-15 -35 -3 -5 8 -9 9 -9 3 0 -11 -39 -27 -70 -29 -8 0 -25 -6 -38 -13 -12 -7
-32 -10 -42 -7 -11 4 -20 2 -20 -2 0 -11 -64 -43 -84 -43 -7 0 -31 -16 -52
-36 -24 -21 -46 -33 -57 -30 -9 2 -15 0 -12 -4 7 -11 -2 -16 -44 -25 l-33 -7
4 92 c5 100 23 133 71 135 13 1 38 11 55 23 16 12 44 25 61 28 17 4 34 11 37
15 9 16 34 10 28 -6 -9 -24 22 -8 41 21 12 19 24 24 55 24 25 0 40 -5 40 -12
0 -10 2 -10 8 -1 11 17 64 26 82 14 12 -9 13 -14 3 -30 -7 -12 -9 -23 -3 -26
5 -3 11 -1 15 5 3 5 23 10 43 10 l37 1 -30 14 c-34 15 -30 18 43 19 71 1 84
22 34 52 -32 19 -34 24 -19 30 11 4 33 0 53 -10 44 -20 43 -21 54 10 9 24 14
26 48 19 20 -3 51 -7 69 -7 28 -1 31 -4 21 -21 -9 -17 -8 -19 8 -12 11 4 36
11 58 17 46 10 101 48 70 48 -11 0 -27 -7 -37 -14 -17 -13 -57 -11 -57 3 0 10
71 31 118 36 24 2 40 0 37 -6 -4 -5 -14 -9 -23 -9 -13 0 -13 -3 -4 -12 10 -10
17 -10 31 -1 14 9 21 9 30 0 8 -8 15 -6 25 9 13 17 13 19 -10 22 -50 7 -21 19
48 21 40 1 75 4 77 7 6 6 17 5 25 -3z m-156 -752 c2 -41 -2 -78 -8 -86 -11
-14 -151 -40 -172 -32 -11 4 -13 18 -9 53 l6 49 60 5 c56 5 60 7 63 32 2 15
-3 37 -11 50 -8 13 -18 33 -22 46 -6 22 -4 21 42 -11 l48 -34 3 -72z m635 -15
c-4 -59 -2 -58 -144 -53 -139 5 -180 18 -113 36 22 5 73 19 114 30 41 11 91
19 110 18 32 -2 35 -4 33 -31z m-1446 -202 c-3 -3 -12 -4 -19 -1 -8 3 -5 6 6
6 11 1 17 -2 13 -5z m728 -328 c43 -18 50 -42 49 -166 -1 -125 -12 -174 -42
-178 -15 -2 -25 4 -32 20 -10 26 -50 270 -50 311 0 32 21 35 75 13z m-152
-218 c11 -51 21 -104 24 -118 l5 -26 -129 -18 c-70 -10 -147 -23 -171 -28 -23
-6 -45 -8 -48 -5 -3 3 16 20 43 37 60 41 209 186 229 223 8 15 18 27 22 27 4
0 15 -42 25 -92z m487 -180 c57 -29 81 -74 78 -143 l-3 -50 -63 -3 -63 -3 -14
34 c-8 19 -22 62 -31 95 -14 50 -15 64 -4 77 17 21 48 19 100 -7z m-181 -523
c39 -74 71 -139 71 -145 0 -5 -6 -10 -14 -10 -17 0 -49 49 -110 168 -44 86
-52 122 -27 122 5 0 41 -61 80 -135z m-459 39 c0 -7 -66 -34 -82 -34 -7 0 5 9
27 19 43 21 55 24 55 15z m-110 -51 c-8 -3 -24 -10 -35 -15 -20 -9 -20 -9 -1
6 11 9 27 16 35 15 14 0 14 -1 1 -6z m-80 -37 c0 -2 -7 -7 -16 -10 -8 -3 -12
-2 -9 4 6 10 25 14 25 6z m-125 -66 c-3 -5 -11 -10 -16 -10 -6 0 -7 5 -4 10 3
6 11 10 16 10 6 0 7 -4 4 -10z m91 -5 c-11 -8 -27 -15 -35 -15 -10 1 -7 6 9
15 33 19 50 18 26 0z m665 -366 c25 -25 17 -39 -9 -16 -9 9 -29 20 -42 26
l-25 10 28 0 c15 1 36 -8 48 -20z"/>
<path d="M4206 2991 c13 -13 124 -24 124 -13 0 13 -36 22 -89 22 -27 0 -41 -4
-35 -9z"/>
<path d="M4240 2940 c0 -5 21 -10 46 -10 27 0 43 4 39 10 -3 6 -24 10 -46 10
-21 0 -39 -4 -39 -10z"/>
<path d="M4283 2893 c9 -2 23 -2 30 0 6 3 -1 5 -18 5 -16 0 -22 -2 -12 -5z"/>
<path d="M4265 2850 c3 -5 15 -10 26 -10 10 0 19 5 19 10 0 6 -12 10 -26 10
-14 0 -23 -4 -19 -10z"/>
<path d="M960 2969 c0 -5 5 -7 10 -4 6 3 10 8 10 11 0 2 -4 4 -10 4 -5 0 -10
-5 -10 -11z"/>
<path d="M1501 2909 c-16 -6 -21 -13 -14 -20 13 -13 43 -1 43 17 0 8 -1 14 -2
13 -2 0 -14 -5 -27 -10z"/>
<path d="M655 2720 c3 -5 8 -10 11 -10 2 0 4 5 4 10 0 6 -5 10 -11 10 -5 0 -7
-4 -4 -10z"/>
<path d="M1210 2720 c0 -5 5 -10 10 -10 6 0 10 5 10 10 0 6 -4 10 -10 10 -5 0
-10 -4 -10 -10z"/>
<path d="M740 2689 c0 -5 5 -7 10 -4 6 3 10 8 10 11 0 2 -4 4 -10 4 -5 0 -10
-5 -10 -11z"/>
<path d="M550 2670 c0 -5 5 -10 11 -10 5 0 7 5 4 10 -3 6 -8 10 -11 10 -2 0
-4 -4 -4 -10z"/>
<path d="M520 2640 c0 -5 5 -10 10 -10 6 0 10 5 10 10 0 6 -4 10 -10 10 -5 0
-10 -4 -10 -10z"/>
<path d="M1320 2610 c0 -5 5 -10 11 -10 5 0 7 5 4 10 -3 6 -8 10 -11 10 -2 0
-4 -4 -4 -10z"/>
<path d="M740 2530 c0 -5 5 -10 11 -10 5 0 7 5 4 10 -3 6 -8 10 -11 10 -2 0
-4 -4 -4 -10z"/>
<path d="M1075 2470 c-3 -5 -1 -10 4 -10 6 0 11 5 11 10 0 6 -2 10 -4 10 -3 0
-8 -4 -11 -10z"/>
<path d="M1075 2420 c-3 -5 -1 -10 4 -10 6 0 11 5 11 10 0 6 -2 10 -4 10 -3 0
-8 -4 -11 -10z"/>
<path d="M850 2359 c0 -5 5 -7 10 -4 6 3 10 8 10 11 0 2 -4 4 -10 4 -5 0 -10
-5 -10 -11z"/>
<path d="M2862 5227 c-92 -117 -319 -315 -444 -386 -27 -16 -45 -31 -40 -35
14 -8 111 44 185 101 128 98 330 309 350 366 10 28 1 20 -51 -46z"/>
<path d="M2700 5150 c-63 -64 -135 -131 -160 -148 -25 -17 -75 -53 -112 -78
-64 -44 -82 -64 -57 -64 6 0 49 24 94 54 122 79 376 331 354 350 -2 2 -56 -49
-119 -114z"/>
<path d="M5721 4920 c-2 -30 20 -290 44 -535 14 -137 30 -290 34 -338 9 -91
14 -108 31 -91 11 11 -2 181 -20 264 -5 25 -14 90 -19 145 -38 388 -66 610
-70 555z"/>
<path d="M3440 4846 c-65 -19 -97 -33 -105 -46 -13 -21 3 -22 51 -6 52 18 225
21 372 7 70 -7 88 -13 120 -38 51 -41 99 -115 120 -185 9 -32 20 -58 24 -58
10 0 38 55 38 75 0 58 -114 179 -215 229 -57 28 -67 30 -210 33 -105 2 -164
-1 -195 -11z m589 -226 c5 -16 7 -30 3 -30 -4 0 -13 14 -19 30 -6 17 -8 30 -3
30 4 0 13 -13 19 -30z"/>
<path d="M2516 4691 c-20 -33 -82 -153 -138 -267 -56 -115 -103 -203 -105
-198 -6 17 95 290 146 397 26 54 44 100 41 102 -18 11 -157 -298 -189 -419
-17 -63 -41 -89 -33 -36 2 17 8 33 13 36 5 3 9 16 9 28 0 24 12 58 85 236 24
58 46 117 49 132 10 46 -14 45 -55 -3 -23 -26 -39 -38 -39 -28 0 8 5 20 11 26
6 6 9 18 7 28 -2 10 -24 -20 -57 -77 -72 -123 -111 -184 -198 -301 -40 -54
-73 -105 -73 -113 0 -27 29 -14 57 26 36 52 214 296 245 335 18 23 24 25 26
13 2 -9 -3 -27 -12 -40 -21 -33 -86 -223 -96 -283 -4 -27 -11 -62 -15 -76 -4
-18 -1 -31 10 -43 16 -16 14 -20 -34 -76 -49 -56 -61 -80 -42 -80 4 0 24 19
42 42 19 23 53 64 76 91 48 57 137 208 147 250 4 15 42 100 86 189 44 88 79
163 76 165 -2 2 -20 -23 -40 -56z"/>
<path d="M3603 4720 c-50 -20 -57 -83 -13 -125 49 -47 124 -30 157 35 31 61
-65 122 -144 90z m91 -36 c29 -28 -2 -94 -44 -94 -26 0 -60 30 -60 52 0 50 69
77 104 42z"/>
<path d="M3640 4650 c0 -5 5 -10 10 -10 6 0 10 5 10 10 0 6 -4 10 -10 10 -5 0
-10 -4 -10 -10z"/>
<path d="M3359 4566 c74 -77 189 -116 336 -115 152 1 152 15 -1 20 -130 5
-145 7 -205 36 -36 16 -81 44 -101 62 -48 42 -70 40 -29 -3z"/>
<path d="M4984 4516 c-11 -7 -45 -18 -77 -24 -105 -21 -207 -77 -207 -114 0
-17 27 -7 50 17 39 41 167 77 280 79 92 1 97 0 165 -37 39 -20 98 -56 133 -78
72 -48 96 -43 37 7 -119 100 -331 184 -381 150z"/>
<path d="M3354 4491 c10 -11 48 -32 84 -47 57 -23 83 -28 172 -30 58 -1 83 0
55 2 -83 6 -197 35 -259 65 -70 34 -75 35 -52 10z"/>
<path d="M3912 4458 c-20 -20 4 -48 43 -48 40 0 44 11 15 40 -23 23 -41 25
-58 8z"/>
<path d="M4913 4415 c-25 -17 -39 -71 -29 -111 4 -16 19 -30 41 -40 32 -13 38
-12 72 7 73 40 81 73 29 125 -38 38 -77 44 -113 19z m95 -41 c47 -32 18 -77
-51 -78 -37 -1 -42 2 -45 23 -2 12 -1 34 2 47 5 19 13 24 39 24 18 0 43 -7 55
-16z"/>
<path d="M4950 4340 c0 -13 5 -20 13 -17 6 2 12 10 12 17 0 7 -6 15 -12 18 -8
2 -13 -5 -13 -18z"/>
<path d="M4698 4283 c-28 -7 -21 -20 17 -33 19 -6 37 -20 41 -32 11 -35 214
-119 214 -89 0 6 -8 14 -17 17 -10 3 -48 19 -85 37 -65 29 -72 36 -69 64 4 28
-54 49 -101 36z"/>
<path d="M2482 4260 c71 -211 79 -228 138 -280 32 -27 61 -50 64 -50 12 0 5
28 -11 48 -10 12 -29 39 -43 62 -24 40 -50 58 -30 21 17 -32 12 -48 -9 -26
-10 11 -33 63 -51 115 -18 52 -40 102 -48 110 -13 13 -14 13 -10 0z"/>
<path d="M4514 4256 c-3 -8 13 -97 36 -198 23 -101 47 -205 53 -232 10 -41 9
-51 -3 -58 -8 -5 -49 -29 -90 -53 -88 -51 -156 -116 -147 -139 10 -24 38 -19
94 17 77 49 129 101 164 163 l32 56 -22 86 c-12 48 -38 151 -58 230 -33 134
-46 162 -59 128z m50 -548 c-8 -20 -106 -95 -134 -103 l-25 -8 20 23 c17 19
131 100 141 100 2 0 1 -6 -2 -12z"/>
<path d="M5107 4131 c19 -10 49 -12 106 -8 121 8 110 22 -18 22 -103 0 -111
-1 -88 -14z"/>
<path d="M5090 4098 c30 -11 205 -12 225 -1 7 5 -46 8 -118 9 -92 1 -124 -2
-107 -8z"/>
<path d="M4254 3799 c-4 -8 1 -18 14 -27 12 -8 22 -21 22 -29 0 -19 34 -13 38
7 6 33 -58 75 -74 49z"/>
<path d="M4020 3371 c8 -5 62 -25 120 -44 81 -27 128 -36 207 -41 127 -8 146
9 21 19 -80 6 -198 34 -276 66 -30 12 -93 12 -72 0z"/>
<path d="M2980 2630 c-21 -6 -22 -8 -8 -14 22 -10 59 -4 59 9 0 13 -20 15 -51
5z"/>
<path d="M1659 2469 c-13 -24 -6 -83 12 -105 16 -19 43 -18 62 4 20 22 23 92
5 110 -20 20 -66 14 -79 -9z m61 -47 c0 -21 -3 -42 -7 -45 -13 -13 -33 16 -33
49 0 27 4 34 20 34 17 0 20 -7 20 -38z"/>
<path d="M4170 1983 c-139 -49 -151 -55 -144 -75 13 -41 -93 -117 -172 -124
-51 -5 -84 -19 -84 -36 0 -10 29 -7 63 7 13 5 17 2 17 -13 0 -22 18 -32 59
-32 28 0 47 17 104 93 15 20 55 56 88 79 32 23 59 46 59 50 0 5 16 18 35 29
19 12 35 25 35 30 0 12 -6 11 -60 -8z m-59 -63 c-13 -11 -31 -20 -40 -20 -12
1 -11 5 8 20 13 11 31 20 40 20 12 -1 11 -5 -8 -20z m-176 -160 c-18 -19 -65
-28 -65 -12 0 4 15 13 33 19 48 16 52 15 32 -7z"/>
<path d="M3772 1709 c2 -7 10 -15 17 -17 8 -3 12 1 9 9 -2 7 -10 15 -17 17 -8
3 -12 -1 -9 -9z"/>
<path d="M4933 1581 c20 -38 115 -241 146 -314 55 -130 116 -261 151 -328 17
-31 30 -66 30 -77 0 -22 41 -59 192 -175 150 -116 119 -67 -37 58 -49 39 -96
79 -104 89 -28 33 -3 25 58 -20 34 -26 65 -44 68 -40 4 3 4 7 2 9 -2 2 -41 32
-87 67 -74 56 -102 85 -102 105 0 3 28 -17 63 -43 62 -49 107 -77 107 -68 0 3
-43 40 -95 82 -86 69 -146 137 -132 150 3 3 43 -24 88 -60 46 -36 90 -66 99
-65 15 0 9 6 -139 125 -72 57 -127 130 -119 155 2 6 32 -12 68 -40 62 -50 96
-67 69 -35 -7 9 -50 45 -94 79 -79 62 -81 64 -133 180 -29 65 -50 120 -47 123
6 7 150 -65 566 -280 283 -147 399 -214 444 -256 64 -60 203 -248 248 -337 22
-45 64 -187 86 -295 15 -74 41 -302 41 -361 0 -5 7 -9 16 -9 14 0 16 11 9 88
-8 105 -49 349 -69 412 -15 47 -126 288 -173 375 -47 89 -216 239 -302 270
-39 13 -76 33 -385 199 -98 53 -184 96 -191 96 -8 0 -17 5 -20 10 -4 6 -28 20
-53 31 -26 11 -60 27 -77 35 -44 21 -196 73 -192 65z"/>
<path d="M5090 1401 c8 -4 29 -11 45 -15 19 -4 25 -3 15 3 -8 4 -28 11 -45 15
-19 4 -25 3 -15 -3z"/>
<path d="M5235 1351 c103 -41 147 -65 279 -155 150 -102 230 -179 278 -272 42
-80 58 -90 148 -97 31 -2 82 -15 116 -31 l61 -27 17 -139 c9 -76 21 -249 28
-384 9 -183 15 -246 24 -246 8 0 14 17 17 42 l4 43 1 -42 c1 -24 7 -43 13 -43
8 0 9 12 5 37 -4 21 -10 65 -13 98 -3 33 -9 65 -14 71 -5 6 -8 73 -8 150 1
102 -4 167 -20 244 -11 58 -21 123 -23 144 -3 39 -4 40 -81 73 -59 25 -93 33
-137 33 -32 0 -65 3 -74 6 -9 3 -33 38 -53 78 -47 90 -137 180 -275 273 -133
90 -204 129 -280 154 -87 28 -95 22 -13 -10z"/>
<path d="M1416 1213 c9 -61 34 -123 66 -159 61 -69 62 -3 2 109 -19 37 -44 72
-54 77 -17 9 -18 7 -14 -27z m58 -61 c22 -43 30 -76 17 -68 -13 8 -35 49 -46
85 -9 31 10 19 29 -17z"/>
<path d="M4 1195 c5 -51 65 -225 77 -225 5 0 9 9 9 19 0 23 -56 185 -76 221
-14 24 -15 24 -10 -15z"/>
<path d="M3107 1161 c66 -104 229 -311 251 -319 16 -5 16 13 -1 30 -26 26
-144 175 -196 246 -51 69 -92 102 -54 43z"/>
<path d="M875 1161 c-22 -11 -44 -20 -48 -21 -15 0 -137 -91 -152 -113 -29
-42 -2 -36 49 10 59 53 116 90 116 74 0 -10 -40 -50 -120 -120 -19 -16 -51
-35 -72 -42 -44 -14 -65 -34 -48 -44 20 -13 116 45 187 113 l73 69 75 7 c42 4
80 4 86 0 6 -3 18 -23 26 -43 9 -20 18 -31 20 -24 2 7 0 21 -6 32 -20 36 -13
50 27 57 67 12 71 23 8 24 -38 0 -65 5 -76 15 -28 25 -100 28 -145 6z m105
-17 c0 -2 -12 -4 -27 -4 -21 0 -24 3 -14 9 13 8 41 5 41 -5z"/>
<path d="M3160 1165 c0 -12 104 -144 208 -264 l23 -26 -7 40 c-4 22 -14 49
-24 60 -10 11 -34 46 -55 78 -21 31 -40 57 -42 57 -3 0 -2 -12 2 -27 6 -27 6
-27 -13 -9 -11 10 -33 35 -48 57 -23 34 -44 50 -44 34z"/>
<path d="M2980 1114 c0 -5 27 -45 61 -89 33 -44 88 -119 122 -167 57 -81 77
-101 77 -80 0 5 -19 34 -42 65 -24 30 -74 98 -111 150 -67 93 -107 139 -107
121z"/>
<path d="M2165 1028 c4 -13 21 -45 37 -73 17 -27 54 -87 82 -132 28 -46 54
-83 59 -83 11 0 -18 53 -75 138 -27 40 -61 95 -74 123 -26 52 -40 64 -29 27z"/>
<path d="M2980 1027 c0 -23 274 -395 293 -396 17 -2 4 21 -54 96 -33 43 -100
131 -150 197 -49 65 -89 112 -89 103z"/>
<path d="M2156 908 c5 -7 39 -60 76 -118 38 -57 80 -135 96 -172 15 -37 31
-68 35 -68 23 0 -49 148 -133 273 -36 53 -69 97 -73 97 -5 0 -5 -6 -1 -12z"/>
<path d="M3070 785 c0 -13 73 -100 177 -211 59 -64 119 -132 132 -150 22 -32
62 -50 45 -21 -23 38 -80 104 -174 202 -58 61 -117 124 -131 140 -25 32 -49
51 -49 40z"/>
<path d="M5365 664 c53 -47 205 -148 212 -140 7 7 -46 52 -106 90 -25 15 -62
41 -82 57 -52 41 -72 35 -24 -7z"/>
<path d="M1150 626 c0 -4 13 -12 29 -17 17 -6 42 -26 56 -45 29 -37 55 -45 55
-15 0 25 -62 71 -105 78 -19 3 -35 3 -35 -1z"/>
<path d="M6252 460 c0 -19 2 -27 5 -17 2 9 2 25 0 35 -3 9 -5 1 -5 -18z"/>
<path d="M6264 280 c9 -196 17 -280 27 -280 5 0 6 12 4 28 -3 15 -10 108 -16
207 -6 99 -13 182 -16 185 -3 3 -3 -60 1 -140z"/>
<path d="M1436 178 c16 -26 69 -88 77 -88 16 0 5 22 -29 60 -34 38 -64 55 -48
28z"/>
<path d="M51 126 c-29 -30 -52 -59 -50 -65 2 -6 28 16 58 49 29 34 51 63 49
65 -2 3 -28 -20 -57 -49z"/>
</g>
</svg>
